<?xml version="1.0" standalone="no"?>
<!DOCTYPE svg PUBLIC "-//W3C//DTD SVG 20010904//EN"
 "http://www.w3.org/TR/2001/REC-SVG-20010904/DTD/svg10.dtd">
<svg version="1.0" xmlns="http://www.w3.org/2000/svg"
 width="300.000000pt" height="300.000000pt" viewBox="0 0 300.000000 300.000000"
 preserveAspectRatio="xMidYMid meet">
<metadata>
Created by potrace 1.14, written by Peter Selinger 2001-2017
</metadata>
<g transform="translate(0.000000,300.000000) scale(0.100000,-0.100000)"
fill="#000000" stroke="none">
<path d="M1310 2404 c-116 -17 -252 -69 -334 -128 -60 -43 -71 -52 -122 -101
-157 -154 -247 -368 -245 -585 1 -103 5 -152 14 -167 3 -5 -22 -39 -56 -75
-97 -102 -117 -125 -117 -136 0 -6 -4 -12 -8 -14 -8 -3 -57 -69 -57 -78 -1 -3
-9 -20 -18 -38 -24 -44 -31 -120 -15 -152 19 -35 79 -62 149 -65 47 -2 65 -8
81 -24 31 -34 87 -26 113 16 15 24 33 35 75 47 30 8 73 20 95 27 39 11 42 10
104 -31 262 -175 589 -192 859 -44 34 19 66 34 71 34 4 0 7 -15 6 -34 -3 -43
7 -60 33 -52 23 8 82 62 82 76 0 6 4 10 9 10 6 0 23 28 39 62 40 84 45 97 49
138 3 19 11 42 18 50 31 36 91 180 109 261 20 89 24 194 13 299 l-7 65 52 55
c29 31 70 76 90 100 21 25 43 51 48 58 33 39 83 152 87 198 5 46 2 53 -26 82
-67 67 -206 64 -471 -12 -8 -2 -26 -8 -39 -14 -21 -7 -33 -3 -75 30 -28 21
-61 41 -73 44 -13 4 -23 10 -23 15 0 5 -9 9 -20 9 -11 0 -20 4 -20 8 0 9 -106
44 -185 61 -77 17 -192 19 -285 5z m1120 -129 c46 -10 80 -47 80 -88 0 -51
-61 -164 -137 -257 -91 -110 -136 -148 -139 -120 -1 6 -3 12 -4 15 -1 3 -3 8
-5 13 -4 16 -17 49 -33 82 -8 19 -15 38 -14 42 1 3 -5 12 -13 18 -8 7 -15 17
-15 23 0 12 -71 107 -120 160 -19 22 -35 42 -35 45 0 7 34 18 169 51 109 27
196 32 266 16z m-1755 -1018 c33 -82 89 -167 159 -241 l52 -56 -63 -21 c-97
-32 -120 -34 -128 -10 -8 26 -67 38 -100 21 -13 -7 -27 -25 -30 -40 -6 -26 -8
-27 -63 -25 -101 4 -149 44 -139 115 11 81 82 191 212 328 l50 52 12 -27 c6
-16 23 -59 38 -96z"/>
</g>
</svg>
